inDegrees=no
num_controls=7
num_derivatives=13
num_iterations=90
num_multipliers=7
num_parameters=0
num_slacks=7
num_states=26
objective=0.426621
objective_accelerations=0.058067
objective_balance=0.001323
objective_effort=0.014430
objective_height=0.346861
objective_ligament=0.005940
solver_duration=1308.986974
status=Solve_Succeeded
success=true
DataType=double
version=3
OpenSimVersion=4.5
endheader
time	/jointset/ground_pelvis/pelvis_tilt/value	/jointset/ground_pelvis/pelvis_tx/value	/jointset/ground_pelvis/pelvis_ty/value	/jointset/hip_l/hip_flexion_l/value	/jointset/hip_l/hip_adduction_l/value	/jointset/hip_l/hip_rotation_l/value	/jointset/back/lumbar_extension/value	/jointset/patellofemoral_l/patellar_flexion_l/value	/jointset/knee_l/knee_flexion_l/value	/jointset/knee_l/knee_adduction_l/value	/jointset/knee_l/knee_rotation_l/value	/jointset/ankle_l/ankle_angle_l/value	/jointset/subtalar_l/subtalar_angle_l/value	/jointset/ground_pelvis/pelvis_tilt/speed	/jointset/ground_pelvis/pelvis_tx/speed	/jointset/ground_pelvis/pelvis_ty/speed	/jointset/hip_l/hip_flexion_l/speed	/jointset/hip_l/hip_adduction_l/speed	/jointset/hip_l/hip_rotation_l/speed	/jointset/back/lumbar_extension/speed	/jointset/patellofemoral_l/patellar_flexion_l/speed	/jointset/knee_l/knee_flexion_l/speed	/jointset/knee_l/knee_adduction_l/speed	/jointset/knee_l/knee_rotation_l/speed	/jointset/ankle_l/ankle_angle_l/speed	/jointset/subtalar_l/subtalar_angle_l/speed	/forceset/tau_hip_flexion_l	/forceset/tau_hip_adduction_l	/forceset/tau_hip_rotation_l	/forceset/tau_knee_flexion_l	/forceset/tau_ankle_angle_l	/forceset/tau_subtalar_angle_l	/forceset/tau_lumbar_extension	lambda_cid13_p0	lambda_cid13_p1	lambda_cid13_p2	lambda_cid13_p3	lambda_cid13_p4	lambda_cid13_p5	lambda_cid14_p0	/jointset/ground_pelvis/pelvis_tilt/accel	/jointset/ground_pelvis/pelvis_tx/accel	/jointset/ground_pelvis/pelvis_ty/accel	/jointset/hip_l/hip_flexion_l/accel	/jointset/hip_l/hip_adduction_l/accel	/jointset/hip_l/hip_rotation_l/accel	/jointset/back/lumbar_extension/accel	/jointset/patellofemoral_l/patellar_flexion_l/accel	/jointset/knee_l/knee_flexion_l/accel	/jointset/knee_l/knee_adduction_l/accel	/jointset/knee_l/knee_rotation_l/accel	/jointset/ankle_l/ankle_angle_l/accel	/jointset/subtalar_l/subtalar_angle_l/accel	gamma_cid13_p0	gamma_cid13_p1	gamma_cid13_p2	gamma_cid13_p3	gamma_cid13_p4	gamma_cid13_p5	gamma_cid14_p0
1.5	-0.3371278289961589	0.04926924003146205	0.7909812635591381	1.005851797740645	-0.3547622206230647	-0.05619582895664345	-0.3283490592210815	0.821217436479555	0.82121743647951	-0.02455386980559512	-0.1719265522865713	0.272354914545824	0.1584500534692622	0.471004114124402	0.2682104222829285	0.4999021799747383	-2.305582508155677	0.003513325513619179	-0.5872678444604804	0.6184210381960691	-2.217269530223965	-2.217269530223816	-0.3137235776666213	0.0382279924733636	-0.5543416956987165	-0.2156310897286792	-0.1254609484469028	0.04137272718012886	-0.001952193180386263	-0.1409050191744466	-0.01946685779187437	0.01017563785324504	0.1219747616372811	-29.65418415479589	0.07454047395888387	0.5048613838864492	-6.158761857796347	-428.9174584598554	-54.03213089578898	-10.03995080519632	0.5350064751221184	0.6444962592396777	-0.7724192360325368	-1.294896909536886	0.2982410183906619	-0.5096419984256824	1.548975976291747	-1.150375025225322	-1.15037502522535	-0.1300208603252463	0.3169828788490895	-0.4524350280602474	0.4380727235963675	6.303074335686388e-07	-5.046935275124301e-07	-7.35333699295448e-06	-4.225569023835475e-07	1.444988410724885e-06	1.651740738472926e-06	8.146771136384745e-07
1.51	-0.3323911289399467	0.05198315113536726	0.7959406452724095	0.9827329856477666	-0.354714557725328	-0.06208673537016524	-0.3220893767869591	0.7989893972893179	0.7989893972893088	-0.02770661135438456	-0.1715266231962272	0.2667887177108573	0.1563122437031736	0.4762449611184035	0.2745218721540043	0.4918593701702411	-2.317830041804454	0.0060290472319892	-0.5908312358202051	0.6334046968622454	-2.228013438473433	-2.228013438473258	-0.31679218812709	0.04180421416653866	-0.5588077174384598	-0.2118913830297126	-0.1210571269098028	0.03936346892770913	-0.001093344490196576	-0.1376235537850257	-0.01983957981000577	0.009859113075118539	0.1182339817450419	-29.60508188973364	-0.02708513527375032	0.7843415396668256	-5.823737343023607	-425.5630637763335	-54.45821936336396	-10.95821659999184	0.5050364494114926	0.616908021147341	-0.8371373408612325	-1.137117453485019	0.2307872623453504	-0.2665243657056046	1.45644804686298	-0.9878223820259574	-0.9878223820220677	-0.3906648303890146	0.3836224786725095	-0.430182302875667	0.3486962625471844	6.122120313569454e-07	-3.108074150917904e-07	-7.061641571935315e-06	-3.82517695305993e-07	1.459477098505971e-06	1.864094265144061e-06	7.853873112744909e-07
1.52	-0.3276047378862192	0.05475866447200442	0.8008162137899955	0.9595022110462142	-0.3546412277076501	-0.0680106430294771	-0.315683180319158	0.7766636342851421	0.7766636342851693	-0.03088911574607574	-0.1710897957561263	0.2611805613473043	0.1542131863279746	0.4809423136272963	0.2805308688293189	0.4831395408376353	-2.327975009890708	0.008646749501766707	-0.5938680936183188	0.6477238449317169	-2.236814293011638	-2.236814293011438	-0.3196761462468116	0.04560766242454584	-0.5627336014159758	-0.207880611550731	-0.116653305372693	0.03735421067528701	-0.0002344958000123829	-0.1343420883956041	-0.0202123018281387	0.009542588296988338	0.1144932018528129	-29.55179435819343	-0.1271723170115788	1.060986777432249	-5.544389653517014	-422.1328993896836	-54.98398982232654	-11.87325200653116	0.4263075781003669	0.5840056200874627	-0.9078231416542589	-0.8743837970324154	0.318637128672161	-0.4043352861034583	1.416073856950764	-0.7617642829727963	-0.761764282972796	-0.093090392175848	0.3624281918155253	-0.344407475614829	0.4922856795993812	5.974786266440959e-07	2.687341982681546e-07	-6.850185764236053e-06	-2.918066869739631e-07	1.484058432911289e-06	2.256912271431921e-06	8.018622197656054e-07
1.53	-0.3227739762498078	0.05759286354493036	0.8056013465940807	0.9361799126553118	-0.3545418533534143	-0.07396370069898328	-0.3091373988077877	0.7542593358764891	0.7542593358765176	-0.03409970419062456	-0.1706153690238311	0.2555358893781274	0.1521548208609119	0.4851136045147198	0.2862675029487065	0.4737844939488812	-2.336152810980771	0.01121494991097473	-0.5965996797451849	0.6613109987754301	-2.243719152939814	-2.24371915293964	-0.3224829340514922	0.04934713815046562	-0.5660920761296772	-0.2037782928799413	-0.1119595908101906	0.03661866255114325	0.0007292548283360289	-0.1321023301813107	-0.01883012988440659	0.00762138751793139	0.1105980234647756	-29.09384610268271	0.5721259231604806	1.012201432163862	-5.554824514084814	-419.1064359421138	-53.99158957115996	-12.78391600066791	0.3981359921878554	0.562261912465449	-0.9644167143194405	-0.7396132008359184	0.2247852372244158	-0.1850411008841502	1.311817363056471	-0.6060918436867505	-0.6060918436908569	-0.3806758264506021	0.3889330356600166	-0.3151783722171497	0.3718429182770244	5.863173442737682e-07	1.258034781376107e-06	-6.723984545689188e-06	-1.472568898090536e-07	1.519363204354855e-06	2.841473787312547e-06	8.66962133540261e-07
